<svg width="11.666748" height="12.000000" viewBox="0 0 11.6667 12" fill="none" xmlns="http://www.w3.org/2000/svg" xmlns:xlink="http://www.w3.org/1999/xlink">
	<desc>
			Created with Pixso.
	</desc>
	<defs/>
	<path id="Vector" d="M1.16 10.66L10.5 10.66L10.5 6L11.66 6L11.66 11.33C11.66 11.51 11.6 11.67 11.49 11.8C11.38 11.92 11.23 12 11.08 12L0.58 12C0.42 12 0.28 11.92 0.17 11.8C0.06 11.67 0 11.51 0 11.33L0 6L1.16 6L1.16 10.66ZM7 4L9.91 4L5.83 8.66L1.75 4L4.66 4L4.66 0L7 0L7 4Z" fill="#2B2B2B" fill-opacity="1.000000" fill-rule="nonzero"/>
</svg>
