<svg width="18.000000" height="18.000000" viewBox="0 0 18 18" fill="none" xmlns="http://www.w3.org/2000/svg" xmlns:xlink="http://www.w3.org/1999/xlink">
	<desc>
			Created with Pixso.
	</desc>
	<defs>
		<clipPath id="clip3_217">
			<rect id="file-code" width="16.500000" height="18.000000" transform="translate(1.000000 0.000000)" fill="white" fill-opacity="0"/>
		</clipPath>
		<clipPath id="clip3_216">
			<rect id="Icons/Services" width="18.000000" height="18.000000" fill="white" fill-opacity="0"/>
		</clipPath>
	</defs>
	<g clip-path="url(#clip3_216)">
		<rect id="file-code" width="16.500000" height="18.000000" transform="translate(1.000000 0.000000)" fill="#000000" fill-opacity="0"/>
		<g clip-path="url(#clip3_217)">
			<path id="Vector" d="M17.5 4.28L17.5 4.5L12 4.5L12 0L12.26 0C12.53 0 12.79 0.08 12.98 0.24L17.19 3.69C17.39 3.84 17.5 4.06 17.5 4.28ZM11.65 5.62C11.08 5.62 10.62 5.24 10.62 4.78L10.62 0L2.03 0C1.46 0 1 0.37 1 0.84L1 17.15C1 17.62 1.46 18 2.03 18L16.46 18C17.03 18 17.5 17.62 17.5 17.15L17.5 5.62L11.65 5.62ZM6.29 14.08C6.27 14.09 6.24 14.11 6.22 14.12C6.19 14.13 6.16 14.13 6.13 14.14C6.1 14.14 6.07 14.13 6.04 14.12C6.01 14.11 5.98 14.1 5.96 14.08L3.17 11.95C3.15 11.93 3.13 11.91 3.12 11.88C3.11 11.86 3.1 11.83 3.1 11.81C3.1 11.78 3.11 11.76 3.12 11.73C3.13 11.71 3.15 11.69 3.17 11.67L5.96 9.53C5.98 9.51 6.01 9.5 6.04 9.49C6.07 9.48 6.1 9.48 6.13 9.48C6.16 9.48 6.19 9.49 6.22 9.5C6.24 9.51 6.27 9.52 6.29 9.54L7.13 10.27C7.15 10.29 7.17 10.31 7.18 10.34C7.19 10.36 7.19 10.39 7.19 10.41C7.19 10.44 7.18 10.46 7.17 10.49C7.16 10.51 7.14 10.53 7.11 10.55L5.36 11.81L7.11 13.07C7.14 13.09 7.16 13.11 7.17 13.13C7.18 13.15 7.19 13.18 7.19 13.2C7.19 13.23 7.19 13.25 7.18 13.28C7.17 13.3 7.15 13.32 7.13 13.34L6.29 14.08ZM8.49 15.85L7.31 15.57C7.25 15.56 7.2 15.52 7.17 15.48C7.15 15.43 7.14 15.38 7.16 15.33L9.8 7.89C9.81 7.85 9.85 7.81 9.91 7.78C9.96 7.76 10.02 7.75 10.08 7.77L11.26 8.05C11.29 8.05 11.32 8.06 11.34 8.08C11.37 8.1 11.39 8.11 11.4 8.14C11.42 8.16 11.42 8.18 11.43 8.21C11.43 8.23 11.43 8.26 11.42 8.28L8.78 15.72C8.77 15.74 8.76 15.77 8.74 15.79C8.72 15.81 8.7 15.82 8.67 15.83C8.64 15.85 8.61 15.85 8.58 15.86C8.55 15.86 8.52 15.86 8.49 15.85ZM15.4 11.95L12.61 14.08C12.59 14.1 12.57 14.11 12.54 14.12C12.51 14.13 12.48 14.14 12.45 14.14C12.42 14.13 12.39 14.13 12.36 14.12C12.33 14.11 12.31 14.09 12.29 14.08L11.45 13.34C11.42 13.32 11.41 13.3 11.4 13.28C11.39 13.25 11.38 13.23 11.38 13.2C11.38 13.18 11.39 13.15 11.41 13.13C11.42 13.11 11.44 13.09 11.46 13.07L13.21 11.81L11.46 10.55C11.44 10.53 11.42 10.51 11.41 10.49C11.39 10.46 11.38 10.44 11.38 10.41C11.38 10.39 11.39 10.36 11.4 10.34C11.41 10.31 11.42 10.29 11.45 10.27L12.29 9.54C12.31 9.52 12.33 9.51 12.36 9.5C12.39 9.49 12.42 9.48 12.45 9.48C12.48 9.48 12.51 9.48 12.54 9.49C12.57 9.5 12.59 9.51 12.61 9.53L15.4 11.67C15.43 11.69 15.44 11.71 15.46 11.73C15.47 11.76 15.48 11.78 15.48 11.81C15.48 11.83 15.47 11.86 15.46 11.88C15.44 11.91 15.43 11.93 15.4 11.95Z" fill="#1B1B1B" fill-opacity="1.000000" fill-rule="nonzero"/>
		</g>
	</g>
</svg>
