<svg width="18.000000" height="18.000000" viewBox="0 0 18 18" fill="none" xmlns="http://www.w3.org/2000/svg" xmlns:xlink="http://www.w3.org/1999/xlink">
	<desc>
			Created with Pixso.
	</desc>
	<defs>
		<clipPath id="clip3_219">
			<rect id="Icons/cv" width="18.000000" height="18.000000" fill="white" fill-opacity="0"/>
		</clipPath>
	</defs>
	<rect id="Icons/cv" width="18.000000" height="18.000000" fill="#FFFFFF" fill-opacity="0"/>
	<g clip-path="url(#clip3_219)">
		<path id="Vector" d="M12.76 11.27L9.25 14.62L5.73 11.27C3.1 11.38 1 13.43 1 15.97L1 16.31C1 17.24 1.79 18 2.76 18L15.73 18C16.7 18 17.5 17.24 17.5 16.31L17.5 15.97C17.5 13.43 15.39 11.38 12.76 11.27ZM1.5 2.8L1.73 2.85L1.73 4.91C1.47 5.06 1.29 5.31 1.29 5.62C1.29 5.92 1.46 6.16 1.7 6.31L1.12 8.5C1.06 8.75 1.2 9 1.4 9L2.94 9C3.15 9 3.29 8.75 3.22 8.5L2.65 6.31C2.89 6.16 3.06 5.92 3.06 5.62C3.06 5.31 2.87 5.06 2.62 4.91L2.62 3.06L5.05 3.62C4.73 4.22 4.53 4.9 4.53 5.62C4.53 8.11 6.64 10.12 9.25 10.12C11.85 10.12 13.96 8.11 13.96 5.62C13.96 4.9 13.76 4.22 13.44 3.62L16.99 2.8C17.66 2.65 17.66 1.85 16.99 1.69L9.98 0.08C9.5 -0.03 8.99 -0.03 8.52 0.08L1.5 1.69C0.83 1.85 0.83 2.65 1.5 2.8Z" fill="#000000" fill-opacity="1.000000" fill-rule="nonzero"/>
	</g>
</svg>
